<svg xmlns="http://www.w3.org/2000/svg" version="1.0" width="360.000000" height="359.000000" preserveAspectRatio="xMidYMid meet"><rect id="backgroundrect" width="100%" height="100%" x="0" y="0" fill="none" stroke="none"/>


<g class="currentLayer" style=""><title>Layer 1</title><g transform="translate(0,359) scale(0.10000000149011612,-0.10000000149011612) " fill="#ffffff" stroke="none" id="svg_1" class="selected" fill-opacity="1">
<path d="M1642 2898 c-82 -109 -125 -190 -147 -273 -28 -108 -15 -212 50 -405 19 -57 33 -106 30 -108 -2 -3 -37 -6 -77 -9 -40 -2 -144 -8 -231 -14 -87 -6 -161 -9 -163 -6 -7 6 40 100 78 154 50 74 78 144 78 198 0 74 -9 97 -34 93 -18 -3 -22 -11 -26 -73 -6 -73 -18 -100 -106 -245 -22 -36 -47 -83 -55 -105 l-15 -40 -79 -12 c-620 -100 -945 -250 -945 -438 0 -32 7 -45 43 -80 30 -28 60 -46 93 -54 27 -7 57 -15 67 -18 17 -5 17 -6 -3 -20 -20 -14 -22 -22 -17 -82 3 -36 8 -78 12 -92 6 -22 1 -29 -34 -52 -84 -56 -130 -153 -97 -207 9 -16 14 -34 11 -42 -8 -19 34 -78 74 -105 48 -32 85 -41 271 -64 172 -21 198 -21 1095 -16 176 1 439 -2 585 -6 146 -5 497 -9 780 -10 566 -2 554 -3 594 59 21 31 51 201 42 237 -3 14 -18 40 -33 57 l-27 32 35 29 c19 16 48 33 66 39 28 10 33 17 39 57 9 58 -1 133 -21 173 -15 29 -15 34 0 67 18 38 22 105 18 326 l-3 128 -34 14 c-66 28 -303 84 -436 104 -197 30 -390 41 -698 41 l-272 0 -12 28 c-7 15 -12 75 -13 137 0 103 2 114 31 175 17 36 63 105 102 154 75 93 83 112 55 123 -12 5 -32 -10 -70 -51 -159 -170 -217 -329 -179 -490 9 -38 13 -73 9 -77 -5 -3 -99 -10 -209 -13 l-202 -7 -25 73 c-14 40 -39 111 -56 158 -25 70 -31 100 -31 172 0 129 32 207 153 372 39 53 48 72 41 84 -6 9 -15 17 -22 20 -6 2 -42 -39 -80 -90z m-42 -927 c0 -81 -15 -142 -50 -211 -15 -29 -18 -46 -11 -53 18 -18 37 0 69 66 32 67 50 146 55 232 l2 50 223 0 223 0 30 -70 c69 -161 79 -180 93 -190 27 -17 39 7 22 46 -8 19 -31 74 -50 122 -29 74 -32 89 -20 94 23 9 631 -4 779 -17 165 -14 403 -51 470 -73 6 -2 29 -9 52 -16 l43 -12 -6 -157 c-6 -189 -10 -219 -30 -230 -9 -5 -21 -19 -27 -32 -21 -42 -80 -52 -307 -52 -619 -1 -1464 11 -1761 26 -221 11 -465 16 -715 14 -338 -3 -388 -1 -464 15 -88 20 -144 46 -154 73 -12 32 -5 82 17 115 60 89 295 189 562 239 33 6 69 13 80 15 38 7 200 33 251 39 l51 6 10 -62 c13 -77 74 -188 103 -188 28 0 25 21 -10 77 -29 47 -57 154 -45 173 3 5 20 12 38 15 46 9 450 32 465 27 8 -3 12 -28 12 -81z m170 -521 c390 -12 444 -16 436 -29 -3 -5 -34 -14 -68 -20 -35 -7 -110 -24 -168 -39 -93 -24 -123 -27 -265 -26 -112 1 -183 6 -235 18 -324 73 -366 80 -475 80 -78 0 -143 -7 -225 -24 -89 -19 -146 -25 -250 -25 -126 0 -138 2 -179 25 -24 14 -45 29 -45 35 -1 6 103 11 273 12 151 2 277 6 280 9 7 7 388 1 921 -16z m1249 -41 c107 -6 229 -9 272 -8 43 2 81 0 85 -4 11 -10 -21 -33 -96 -70 -64 -31 -67 -32 -200 -31 -127 1 -146 4 -315 48 -99 26 -195 52 -214 59 -31 11 -32 12 -10 18 28 7 205 3 478 -12z m-2534 -74 c81 0 137 7 215 25 89 21 129 25 255 24 141 0 161 -3 348 -46 110 -26 201 -49 205 -52 24 -24 -146 -56 -199 -37 -18 6 -48 11 -68 12 -20 0 -45 4 -56 8 -23 10 -89 -12 -120 -40 -29 -26 -102 -42 -154 -34 -25 3 -91 29 -146 56 l-99 50 -161 -7 c-112 -5 -172 -3 -196 5 -37 12 -69 54 -69 90 0 19 4 18 68 -17 66 -36 69 -37 177 -37z m3007 9 c6 -42 4 -62 -5 -71 -20 -20 -209 -113 -229 -113 -11 0 -32 -7 -48 -15 -42 -22 -127 -29 -195 -16 -58 11 -304 82 -355 103 -13 5 -64 12 -112 15 l-88 6 -77 -45 c-116 -66 -133 -71 -221 -66 -58 4 -115 18 -234 58 -87 29 -158 57 -158 61 0 5 10 11 23 13 12 2 78 17 147 31 268 59 308 65 405 67 108 2 166 -8 320 -54 185 -55 295 -77 393 -78 156 0 293 49 377 138 17 17 35 30 40 28 6 -1 13 -29 17 -62z m-2864 -114 c35 -6 71 -15 80 -20 9 -5 42 -19 72 -31 30 -12 71 -27 90 -35 66 -25 135 -18 204 21 80 44 139 47 233 9 54 -22 74 -25 116 -19 28 3 57 11 64 17 28 23 176 20 298 -7 11 -2 67 -13 125 -24 58 -11 139 -31 180 -46 89 -31 126 -29 223 9 82 33 146 43 331 51 149 6 184 1 391 -55 100 -27 297 -30 347 -6 17 9 34 13 39 11 4 -3 11 -25 14 -49 14 -91 -44 -142 -150 -131 -33 3 -87 14 -120 24 -38 12 -124 24 -232 31 -160 12 -250 11 -537 -6 -112 -7 -123 -6 -422 47 -158 27 -216 25 -312 -10 -116 -43 -179 -48 -298 -22 -157 32 -462 55 -570 42 -123 -15 -211 -14 -289 4 -66 16 -69 15 -156 -10 -68 -20 -100 -25 -132 -20 -110 19 -138 73 -71 138 43 42 125 79 145 66 20 -13 123 -11 136 2 26 26 107 34 201 19z m542 -281 c183 -14 382 -14 440 0 86 20 255 13 443 -19 190 -32 345 -38 487 -19 41 5 149 10 240 10 138 0 186 -4 293 -25 142 -29 251 -32 312 -11 21 8 41 12 43 10 12 -12 -15 -49 -45 -62 -50 -20 -545 -27 -1013 -12 -201 6 -693 15 -1095 19 -401 5 -752 11 -780 14 -191 24 -325 58 -325 84 0 27 680 34 1000 11z" id="svg_2" fill="#ffffff" fill-opacity="1"/>
</g></g></svg>