<svg xmlns="http://www.w3.org/2000/svg" version="1.0" width="360.000000" height="359.000000" preserveAspectRatio="xMidYMid meet" style=""><rect id="backgroundrect" width="100%" height="100%" x="0" y="0" fill="none" stroke="none"/>


<g class="currentLayer" style=""><title>Layer 1</title><g transform="translate(0,359) scale(0.10000000149011612,-0.10000000149011612) " fill="#ffffff" stroke="#ffffff" id="svg_1" class="" fill-opacity="1" stroke-opacity="1" stroke-width="7">
<path d="M551 2904 c-12 -15 -21 -35 -21 -45 0 -10 39 -70 88 -133 48 -63 126 -166 174 -228 l86 -114 -11 -49 c-6 -28 -11 -51 -12 -53 -1 -1 -26 9 -56 23 -66 30 -108 32 -143 4 -50 -39 -61 -74 -61 -196 l0 -113 -63 0 c-73 0 -119 -20 -128 -54 -8 -31 12 -269 32 -375 57 -314 242 -625 489 -821 l63 -50 812 0 813 0 52 40 c79 61 223 215 282 301 103 150 183 339 219 519 19 96 25 286 9 283 -6 -1 -39 -5 -73 -9 -54 -6 -62 -4 -62 10 0 52 -74 160 -149 218 l-34 26 246 327 c161 214 247 336 247 351 0 35 -34 64 -75 64 -33 0 -40 -8 -297 -349 l-263 -350 -51 0 c-28 -1 -73 -8 -100 -16 -27 -8 -52 -15 -55 -15 -4 0 -4 28 -2 63 4 51 2 66 -11 80 -22 21 -94 22 -143 2 -19 -8 -37 -15 -38 -15 -1 0 -12 27 -24 59 -48 133 -149 149 -277 46 l-40 -33 -54 34 c-92 58 -164 56 -176 -6 -6 -29 -8 -30 -48 -24 -22 4 -42 8 -44 9 -2 2 2 21 8 42 17 54 10 85 -22 103 -28 15 -51 10 -170 -35 -12 -5 -21 3 -33 30 -39 80 -111 97 -200 46 -27 -16 -58 -38 -69 -49 l-18 -21 -49 41 c-38 32 -59 42 -96 46 l-48 4 -154 199 c-84 109 -160 200 -168 203 -32 13 -62 5 -82 -20z m91 -31 c30 -34 260 -329 279 -360 11 -19 11 -24 -4 -41 -9 -10 -17 -24 -17 -30 0 -7 -4 -12 -9 -12 -9 0 -318 400 -327 425 -8 19 13 45 35 45 10 0 29 -12 43 -27z m2663 -83 c9 -10 15 -26 12 -34 -5 -14 -453 -612 -481 -643 -9 -10 -20 -10 -49 -1 -21 6 -36 14 -35 17 9 19 493 658 506 669 21 16 26 15 47 -8z m-1920 -316 c13 -14 29 -42 36 -61 13 -39 9 -39 107 2 35 14 73 25 85 23 46 -6 28 -94 -32 -161 -33 -37 -36 -45 -36 -101 0 -34 4 -73 8 -87 l9 -27 -45 11 c-57 13 -114 2 -128 -25 -15 -27 -4 -74 27 -121 14 -21 24 -40 22 -41 -2 -1 -22 -8 -46 -15 -56 -16 -71 -46 -48 -92 9 -18 15 -34 13 -35 -15 -16 -884 81 -918 102 -5 3 -9 24 -9 48 0 67 21 80 119 73 l79 -5 -5 98 c-9 159 23 240 93 240 17 0 58 -13 89 -30 31 -16 61 -30 66 -30 4 0 11 17 14 38 20 130 64 212 114 212 30 0 84 -36 118 -78 l21 -27 29 26 c99 93 171 113 218 63z m816 -110 c32 -16 79 -100 79 -141 0 -32 13 -35 61 -14 24 11 60 22 81 26 32 6 38 4 53 -19 15 -23 16 -29 1 -80 -13 -42 -29 -69 -71 -111 -63 -65 -102 -138 -115 -219 -5 -32 -12 -61 -15 -65 -3 -3 -197 -6 -431 -6 l-426 0 -29 33 c-48 54 -36 74 54 87 45 7 61 25 36 41 -20 12 -69 98 -69 121 0 42 82 44 163 4 22 -11 44 -18 49 -15 4 3 -3 24 -16 47 -53 90 -50 173 7 207 44 27 83 25 113 -5 35 -35 42 -32 42 20 -1 49 14 75 44 75 17 0 79 -30 139 -67 25 -16 27 -15 80 27 53 42 102 69 127 70 7 0 27 -7 43 -16z m594 -285 c77 -29 157 -104 196 -186 17 -35 29 -66 27 -69 -13 -12 -567 -74 -666 -74 l-44 0 7 43 c19 119 111 237 221 282 77 32 180 34 259 4z m-2090 -304 c442 -57 755 -75 1190 -69 404 5 705 27 1072 79 94 14 177 25 184 25 29 0 -7 -256 -58 -408 -79 -237 -253 -489 -436 -631 l-54 -41 -803 0 -803 0 -70 57 c-138 113 -277 294 -357 466 -71 152 -112 306 -126 478 l-7 82 39 -6 c21 -4 125 -18 229 -32z" id="svg_2" fill="#ffffff" fill-opacity="1" stroke="#ffffff" stroke-opacity="1" stroke-width="7"/>
<path d="M1045 2321 c-9 -16 11 -87 34 -120 12 -17 35 -40 51 -51 l30 -21 -62 -76 c-35 -41 -68 -77 -74 -80 -32 -12 -161 83 -190 139 -8 15 -21 28 -29 28 -21 0 -19 -10 14 -61 27 -44 139 -129 168 -129 20 0 16 -13 -17 -50 -32 -39 -36 -50 -17 -50 6 0 35 25 62 56 l51 57 32 -17 c44 -23 138 -39 179 -31 56 10 32 27 -42 30 -67 2 -145 25 -145 42 0 5 14 25 30 45 27 33 34 36 56 28 37 -14 110 -12 149 4 39 17 49 43 13 31 -40 -12 -116 -18 -143 -11 l-26 7 61 74 c76 93 72 127 -5 41 l-51 -58 -47 50 c-34 37 -48 62 -53 91 -6 40 -17 51 -29 32z" id="svg_3" fill="#ffffff" fill-opacity="1" stroke="#ffffff" stroke-opacity="1" stroke-width="7"/>
<path d="M1947 2168 c-13 -31 -68 -88 -86 -88 -4 0 -18 11 -31 25 -13 14 -27 25 -32 25 -20 0 -4 -30 42 -75 28 -27 50 -52 50 -56 0 -16 -154 -76 -242 -94 -16 -3 -28 -10 -28 -15 0 -27 140 7 239 58 l54 28 51 -54 51 -54 -30 -24 c-34 -28 -113 -54 -161 -54 -45 0 -94 -11 -94 -21 0 -13 89 -11 152 2 49 11 99 32 140 61 14 10 22 8 46 -15 15 -15 31 -27 35 -27 20 0 1 31 -55 87 l-61 62 58 63 c52 56 105 144 105 175 0 34 -21 16 -47 -39 -16 -35 -53 -88 -81 -118 l-50 -55 -47 45 c-42 41 -44 46 -28 57 40 28 71 66 76 91 8 42 -10 49 -26 10z" id="svg_4" fill="#ffffff" fill-opacity="1" stroke="#ffffff" stroke-opacity="1" stroke-width="7"/>
<path d="M2632 2064 c-12 -8 -22 -24 -22 -35 0 -25 47 -119 60 -119 12 0 60 93 60 115 0 21 -36 55 -58 55 -10 0 -28 -7 -40 -16z m57 -23 c12 -8 12 -14 1 -40 -15 -37 -27 -39 -42 -7 -19 43 5 70 41 47z" id="svg_5" fill="#ffffff" fill-opacity="1" stroke="#ffffff" stroke-opacity="1" stroke-width="7"/>
<path d="M2431 1973 c-20 -24 -21 -56 -2 -74 11 -11 112 -41 118 -36 9 9 -18 107 -34 122 -23 23 -59 18 -82 -12z m73 -35 c13 -36 6 -41 -32 -27 -34 12 -40 27 -20 47 19 19 41 10 52 -20z" id="svg_6" fill="#ffffff" fill-opacity="1" stroke="#ffffff" stroke-opacity="1" stroke-width="7"/>
<path d="M2833 1988 c-13 -6 -25 -26 -32 -53 -6 -23 -14 -50 -17 -60 -6 -16 -3 -17 27 -13 19 4 52 13 72 22 30 12 37 20 37 44 0 51 -43 81 -87 60z m41 -24 c9 -3 16 -16 16 -28 0 -17 -9 -25 -35 -33 -40 -13 -40 -14 -21 32 16 38 17 38 40 29z" id="svg_7" fill="#ffffff" fill-opacity="1" stroke="#ffffff" stroke-opacity="1" stroke-width="7"/>
</g></g></svg>