<svg xmlns="http://www.w3.org/2000/svg" version="1.0" width="600.000000" height="245.000000" preserveAspectRatio="xMidYMid meet" style=""><rect id="backgroundrect" width="100%" height="100%" x="0" y="0" fill="none" stroke="none"/>


<g class="currentLayer" style=""><title>Layer 1</title><g transform="translate(0,245) scale(0.10000000149011612,-0.10000000149011612) " fill="#ffffff" stroke="none" id="svg_1" class="selected" fill-opacity="1">
<path d="M3630 2444 c-166 -20 -218 -28 -305 -45 -55 -11 -153 -36 -218 -55 l-118 -35 -92 30 c-255 81 -589 107 -852 67 -193 -30 -797 -187 -923 -241 -132 -55 -268 -138 -335 -203 -99 -97 -180 -250 -212 -403 -14 -64 -21 -79 -65 -125 -57 -60 -65 -78 -75 -160 -10 -79 -24 -103 -88 -153 -174 -134 -224 -254 -158 -381 12 -23 19 -46 16 -51 -4 -5 -24 -18 -46 -29 -69 -36 -45 -87 35 -75 38 6 50 3 73 -14 15 -12 39 -30 52 -40 49 -36 2 -65 -124 -77 -90 -8 -99 -11 -129 -41 -61 -61 -81 -145 -55 -237 10 -36 13 -38 42 -33 18 3 77 33 132 68 109 69 261 149 282 149 8 0 13 -12 13 -32 0 -59 21 -109 63 -156 150 -163 433 -206 957 -143 91 11 239 25 330 30 209 14 956 33 1245 33 121 0 272 4 335 10 147 12 355 -1 770 -47 186 -21 395 -38 510 -41 234 -8 283 1 439 77 125 61 211 138 232 208 7 24 18 45 25 48 24 9 158 -65 213 -117 30 -28 61 -49 70 -48 9 2 29 28 44 58 78 150 176 268 240 289 40 14 51 44 20 56 -10 3 -63 9 -118 12 -106 5 -155 -5 -155 -32 0 -29 -28 -71 -56 -83 -31 -15 -108 -7 -141 14 -25 16 -30 51 -10 76 6 9 46 23 90 31 88 18 194 72 288 147 68 55 94 85 114 134 35 84 11 144 -87 216 -69 50 -70 52 -65 88 26 164 26 167 12 237 -35 168 -153 314 -373 464 -560 380 -1040 545 -1612 556 -107 2 -211 1 -230 -1z m205 -54 c3 -5 0 -10 -7 -10 -82 -1 -313 -48 -433 -87 -84 -27 -419 -177 -540 -242 -246 -132 -451 -190 -526 -151 -52 28 3 75 212 178 280 138 729 275 1034 315 66 9 254 7 260 -3z m-1600 -19 c3 -5 -12 -15 -32 -21 -75 -24 -200 -94 -323 -180 -134 -93 -432 -275 -478 -291 -64 -22 -108 28 -81 94 24 58 137 157 255 224 164 92 306 137 529 167 130 18 123 17 130 7z m515 -51 c145 -29 154 -41 53 -67 -32 -8 -151 -62 -265 -120 -231 -117 -278 -154 -278 -218 0 -29 6 -39 33 -56 28 -18 44 -20 127 -16 132 7 196 29 480 172 135 67 304 147 375 178 140 59 348 121 460 136 136 19 347 24 475 11 112 -10 317 -42 363 -56 34 -10 16 -24 -32 -24 -88 0 -254 -20 -361 -44 -175 -40 -464 -176 -504 -238 -29 -46 -30 -75 -2 -102 20 -21 35 -26 76 -26 56 0 288 52 574 129 239 64 358 78 529 63 255 -24 451 -95 633 -229 136 -102 215 -187 265 -288 43 -86 44 -91 44 -184 0 -118 -18 -160 -89 -209 -90 -60 -126 -65 -440 -60 -250 5 -296 8 -411 31 -665 132 -1480 172 -2137 107 -109 -11 -258 -20 -330 -20 -73 0 -187 -5 -253 -11 -154 -13 -515 -56 -580 -69 -93 -19 -350 -49 -524 -61 -191 -14 -215 -11 -348 41 -93 35 -149 79 -174 134 -25 55 -24 96 4 137 30 44 54 49 63 12 24 -107 46 -164 62 -161 24 4 26 53 7 126 -29 115 -30 168 0 277 31 118 60 174 135 263 58 69 172 154 290 216 111 58 430 155 430 130 0 -5 -26 -27 -56 -49 -74 -52 -150 -138 -170 -191 -44 -117 51 -198 170 -145 51 22 200 114 446 277 223 147 316 190 473 220 95 18 253 11 387 -16z m1921 -121 c119 -15 237 -46 287 -75 23 -14 42 -27 42 -29 0 -3 -102 -4 -227 -3 -177 1 -241 -2 -288 -14 -33 -8 -202 -52 -375 -97 -173 -45 -328 -80 -344 -79 -16 2 -34 11 -40 21 -16 27 35 66 169 131 178 87 292 119 495 141 151 17 181 17 281 4z m-877 -1019 c71 -5 133 -13 139 -19 6 -6 -3 -16 -24 -27 -51 -27 -195 -25 -273 4 -33 12 -65 27 -70 32 -17 17 10 28 57 24 23 -3 100 -8 171 -14z m-271 -25 c65 -43 149 -65 247 -65 96 1 155 14 205 47 30 21 51 26 85 25 56 -3 99 -14 101 -27 4 -17 -182 -104 -265 -125 -160 -40 -305 -22 -464 59 -66 34 -145 98 -136 112 3 5 43 9 90 9 79 0 87 -2 137 -35z m-467 3 c-22 -32 -20 -55 8 -73 24 -16 52 -14 108 7 31 12 40 30 32 65 -6 23 -5 24 13 15 11 -6 26 -18 33 -28 13 -14 11 -19 -10 -37 -45 -36 -129 -68 -218 -83 -138 -22 -494 -15 -520 11 -7 6 51 68 91 97 37 27 60 18 47 -18 -22 -56 36 -97 105 -74 44 14 61 49 46 92 -14 40 2 44 177 47 l103 1 -15 -22z m-2576 -7 c5 -11 10 -33 10 -49 0 -87 65 -178 146 -206 92 -31 172 -16 242 45 20 17 49 37 66 44 36 15 282 30 289 18 8 -14 -31 -106 -62 -143 -61 -75 -201 -115 -364 -107 -125 7 -200 40 -275 122 -61 66 -82 124 -82 222 0 73 10 91 30 54z m2660 0 c0 -23 -25 -45 -40 -36 -8 5 -8 11 0 20 7 8 9 19 5 25 -3 6 3 10 14 10 14 0 21 -6 21 -19z m-645 -18 c0 -33 -189 -142 -281 -161 -104 -22 -225 -26 -294 -8 -74 19 -213 85 -218 104 -5 18 23 15 68 -8 52 -26 140 -35 215 -21 53 10 75 21 154 78 20 14 54 19 165 24 177 7 191 7 191 -8z m255 -8 c16 -19 6 -32 -13 -17 -7 6 -23 9 -35 5 -18 -4 -21 -2 -16 11 8 20 48 21 64 1z m3093 -51 c26 -80 18 -126 -32 -175 -93 -94 -299 -90 -477 9 -158 87 -161 102 -25 102 90 0 101 -2 137 -27 81 -55 175 -68 250 -34 41 19 74 67 74 109 0 10 5 33 11 51 17 49 40 36 62 -35z m-3786 39 c10 -30 -185 -60 -226 -34 -21 14 1 21 107 36 106 14 114 14 119 -2z m2312 -62 c59 -61 93 -86 151 -114 171 -82 345 -101 523 -58 102 24 130 26 125 9 -5 -16 -88 -44 -188 -65 -208 -43 -468 27 -613 166 -72 68 -113 141 -79 141 2 0 39 -35 81 -79z m65 73 c9 -4 16 -18 16 -33 0 -36 26 -71 54 -71 26 0 86 27 86 40 0 11 -26 20 -56 20 -13 0 -24 5 -24 10 0 15 44 12 204 -15 81 -14 151 -25 155 -25 4 0 16 -6 26 -14 19 -14 19 -15 1 -35 -23 -26 -44 -27 -42 -3 1 11 -6 17 -19 17 -16 0 -21 -8 -23 -37 -4 -52 28 -73 102 -65 80 8 99 21 92 61 -5 23 -2 37 8 46 21 17 75 -2 110 -39 l28 -29 -25 -16 c-40 -27 -182 -49 -272 -43 -169 12 -434 125 -479 204 -13 24 22 41 58 27z m-160 -104 c93 -116 208 -185 368 -222 200 -46 481 -17 556 58 19 19 38 34 43 34 4 0 37 -15 71 -34 95 -52 168 -70 283 -70 143 -1 218 30 269 108 29 44 35 115 14 161 -20 44 2 41 48 -7 37 -40 44 -53 44 -88 0 -63 -26 -106 -99 -165 -146 -117 -279 -161 -461 -151 -479 24 -624 39 -833 86 -169 37 -352 60 -492 60 -60 0 -193 7 -295 16 -188 15 -784 36 -830 28 -14 -3 -135 -6 -270 -8 -201 -3 -265 -7 -355 -25 -60 -12 -164 -30 -230 -41 -66 -10 -160 -27 -210 -38 -49 -12 -166 -33 -260 -49 -168 -28 -174 -28 -558 -26 -303 2 -409 0 -487 -12 -132 -20 -183 -19 -228 4 -43 22 -112 93 -136 139 -20 38 -21 114 -2 150 19 36 143 155 155 148 5 -4 14 -29 20 -56 30 -141 125 -247 265 -294 119 -40 297 -36 411 9 74 30 79 30 113 5 15 -10 47 -24 72 -29 67 -16 208 -13 275 5 71 18 183 85 260 156 l56 51 60 -13 c77 -17 241 -7 359 21 84 19 91 19 150 4 94 -24 315 -55 400 -55 84 0 249 23 325 45 28 8 82 35 120 59 39 25 81 46 95 46 14 0 64 -16 110 -35 101 -41 211 -60 294 -50 117 12 297 68 405 125 20 10 40 18 44 17 5 -1 32 -32 61 -67z m1469 36 c-6 -77 -127 -122 -212 -78 -49 24 -50 40 -4 47 93 14 140 27 163 45 34 27 56 21 53 -14z m-5093 -11 c48 -19 109 -39 134 -46 54 -13 55 -27 3 -52 -65 -32 -173 -4 -211 55 -18 28 -31 78 -21 78 4 0 47 -16 95 -35z m1003 -15 c55 -35 53 -44 -19 -99 -66 -50 -163 -82 -269 -88 -119 -7 -124 -2 -83 95 32 76 48 91 48 43 0 -32 39 -71 71 -71 32 0 79 60 79 102 0 34 2 37 33 41 74 9 93 6 140 -23z m1631 19 c-4 -7 -44 -29 -89 -50 -102 -48 -218 -69 -379 -69 -164 0 -386 35 -386 60 0 13 -3 13 125 -11 221 -41 478 -22 640 49 76 33 100 38 89 21z m-1864 -28 c0 -5 -7 -14 -15 -21 -11 -9 -12 -17 -4 -32 9 -17 8 -19 -18 -16 -38 4 -40 46 -3 65 30 15 40 16 40 4z m364 -80 c10 -16 -90 -99 -164 -136 -76 -38 -176 -65 -247 -65 -58 0 -175 39 -171 57 2 11 35 14 163 16 182 3 215 12 322 93 56 42 86 53 97 35z m1431 -163 c4 -4 0 -23 -9 -43 -24 -49 -18 -67 29 -90 31 -15 66 -20 155 -23 108 -3 117 -2 150 20 39 26 48 55 29 99 -6 16 -10 32 -7 34 2 2 89 -2 193 -10 105 -8 289 -21 410 -30 124 -8 261 -24 315 -36 52 -11 157 -31 233 -44 126 -22 141 -27 180 -59 57 -47 85 -56 171 -56 67 0 77 3 112 31 l39 31 112 -4 c62 -2 115 -7 118 -9 2 -3 -1 -20 -8 -38 -10 -26 -9 -36 4 -59 23 -41 64 -57 149 -57 91 0 123 18 143 78 13 40 16 42 56 45 75 6 79 -3 27 -58 -25 -27 -71 -87 -101 -134 -30 -47 -60 -86 -65 -86 -5 0 -32 16 -59 35 -80 58 -242 123 -376 151 -153 32 -579 29 -928 -7 -53 -6 -102 -7 -107 -4 -6 4 -4 17 5 35 8 16 15 52 15 80 0 44 -4 56 -30 81 -26 26 -36 30 -76 27 -62 -4 -81 -30 -91 -123 -8 -69 -9 -70 -48 -90 -67 -33 -196 -27 -385 20 -137 34 -170 39 -280 39 -105 1 -137 -3 -198 -23 -40 -12 -80 -20 -89 -17 -14 6 -11 12 16 40 63 65 48 162 -32 199 -44 21 -79 21 -117 2 -35 -18 -50 -45 -78 -141 -29 -97 -34 -100 -135 -86 -146 21 -250 25 -324 13 -39 -6 -78 -8 -87 -5 -9 3 -25 22 -37 41 -60 97 -202 96 -243 -1 -8 -19 -23 -39 -33 -44 -10 -6 -137 -10 -293 -11 -256 -1 -559 -13 -657 -27 -39 -6 -43 -4 -65 29 -32 50 -69 69 -136 70 -79 2 -117 -16 -136 -63 -14 -35 -21 -40 -73 -55 -141 -39 -175 -54 -336 -146 -94 -54 -175 -95 -179 -93 -14 9 -9 94 7 124 21 40 52 54 196 90 133 33 169 50 169 80 0 23 -36 50 -66 50 -11 0 -41 13 -65 30 -31 21 -56 30 -86 30 -55 0 -61 13 -17 39 38 23 54 20 89 -19 33 -36 90 -60 144 -60 27 0 112 9 188 20 128 19 156 20 388 10 138 -5 300 -9 360 -8 110 3 110 3 158 -30 105 -71 177 -65 278 21 103 88 120 97 211 112 46 7 142 25 213 39 284 56 270 55 637 53 190 -1 350 -5 353 -9z m243 -17 c52 -27 79 -58 63 -74 -14 -14 -152 -22 -217 -12 -71 10 -73 50 -4 87 45 23 111 23 158 -1z m-474 -96 c37 -34 33 -65 -14 -120 -45 -52 -50 -77 -18 -99 32 -22 81 -20 171 9 89 29 176 32 277 10 36 -7 119 -25 185 -39 184 -40 276 -44 360 -16 90 30 101 42 109 128 6 64 23 102 44 102 3 0 16 -10 29 -22 29 -27 30 -72 3 -113 -25 -37 -25 -67 -2 -87 29 -25 49 -28 119 -14 112 22 492 40 700 32 273 -9 355 -34 361 -108 2 -28 -4 -42 -35 -76 -50 -55 -187 -136 -287 -169 -74 -25 -95 -27 -236 -27 -154 0 -358 17 -622 54 -191 27 -367 40 -543 42 -205 2 -1132 -19 -1144 -26 -5 -3 -175 -10 -377 -15 -287 -8 -419 -16 -594 -36 -192 -23 -254 -26 -420 -22 -163 3 -206 8 -260 25 -110 36 -205 105 -241 174 -38 74 -21 100 90 143 65 24 72 30 66 49 -12 40 -10 50 15 63 14 7 42 13 63 13 42 0 69 -21 100 -79 l18 -34 62 7 c221 22 312 26 629 28 194 0 361 5 371 10 9 5 28 30 41 57 29 57 72 81 111 63 13 -6 41 -36 61 -66 42 -64 55 -71 103 -54 48 16 233 16 347 -1 106 -16 158 -9 178 22 8 12 24 55 34 95 31 116 86 153 146 97z m-1194 -25 c0 -17 -81 -69 -118 -76 -37 -7 -101 18 -109 41 -2 6 33 18 79 27 100 19 148 21 148 8z m3289 -26 c33 -7 42 -28 15 -38 -27 -10 -79 -7 -99 7 -39 29 8 46 84 31z" id="svg_2" fill="#ffffff" fill-opacity="1"/>
<path d="M2818 1125 c-15 -33 3 -72 39 -86 56 -21 138 24 131 72 -6 40 -32 46 -77 16 -22 -15 -42 -27 -45 -27 -2 0 -7 11 -10 25 -4 14 -11 25 -16 25 -6 0 -16 -11 -22 -25z" id="svg_3" fill="#ffffff" fill-opacity="1"/>
<path d="M4612 1008 c3 -38 30 -55 101 -64 40 -6 47 -4 61 18 9 14 14 33 10 43 -6 15 -15 16 -64 11 -45 -5 -60 -3 -70 9 -22 27 -42 18 -38 -17z" id="svg_4" fill="#ffffff" fill-opacity="1"/>
<path d="M1593 1008 c2 -19 -3 -23 -26 -23 -30 0 -48 -20 -40 -42 7 -18 47 -16 86 3 56 29 62 57 16 73 -41 14 -39 15 -36 -11z" id="svg_5" fill="#ffffff" fill-opacity="1"/>
<path d="M4430 640 c-27 -27 -25 -56 5 -85 30 -31 93 -34 118 -7 59 65 -61 154 -123 92z m88 -38 c-5 -25 -34 -38 -52 -23 -18 15 -11 38 12 44 26 5 43 -4 40 -21z" id="svg_6" fill="#ffffff" fill-opacity="1"/>
</g></g></svg>