<svg xmlns="http://www.w3.org/2000/svg" version="1.0" width="360.000000" height="359.000000" preserveAspectRatio="xMidYMid meet" style=""><rect id="backgroundrect" width="100%" height="100%" x="0" y="0" fill="none" stroke="none"/>


<g class="currentLayer" style=""><title>Layer 1</title><g transform="translate(0,359) scale(0.10000000149011612,-0.10000000149011612) " fill="#ffffff" stroke="#ffffff" id="svg_1" class="" fill-opacity="1" stroke-opacity="1" stroke-width="14">
<path d="M507 2858 c-19 -10 -32 -67 -22 -99 4 -12 26 -43 50 -68 51 -56 325 -397 325 -405 0 -17 -40 2 -156 76 -196 124 -401 247 -482 289 -119 63 -193 49 -154 -31 9 -18 30 -47 48 -64 40 -40 186 -122 270 -152 58 -21 446 -202 549 -256 56 -29 87 -60 166 -165 70 -94 81 -119 54 -129 -8 -4 -15 -11 -15 -17 0 -12 -115 -166 -139 -185 -10 -8 -28 -11 -51 -7 -44 8 -120 52 -120 69 0 18 50 63 90 80 20 8 73 22 120 30 90 17 99 21 84 36 -11 11 -190 -33 -243 -60 -87 -44 -99 -102 -32 -157 51 -43 59 -58 116 -223 54 -160 116 -280 202 -395 101 -133 208 -211 418 -301 131 -57 183 -63 555 -63 324 0 496 11 598 39 45 13 81 25 79 26 -2 2 -30 -1 -63 -6 -227 -36 -285 -39 -639 -31 -336 8 -353 10 -436 35 -310 93 -474 228 -613 504 -39 78 -136 345 -136 375 0 17 6 18 58 12 31 -4 89 -14 127 -22 216 -45 468 -53 1040 -33 284 10 356 14 700 46 163 15 443 67 536 99 23 8 44 13 47 10 11 -11 -104 -384 -148 -482 -68 -149 -237 -352 -365 -438 -77 -51 -87 -60 -50 -44 92 39 198 130 296 252 111 137 162 243 234 487 20 69 57 173 82 233 58 135 55 158 -26 198 -76 38 -296 92 -321 79 -31 -17 -37 -12 -43 35 -9 62 -30 99 -70 124 -41 25 -101 27 -157 5 l-40 -16 -92 81 c-105 91 -174 125 -293 142 -91 14 -172 2 -283 -42 -45 -18 -110 -34 -155 -39 -97 -11 -201 -45 -247 -81 -19 -15 -61 -34 -93 -44 -40 -11 -72 -29 -101 -56 -27 -24 -53 -39 -68 -39 -24 0 -388 127 -435 151 -12 7 -109 127 -215 268 -287 380 -299 393 -341 369z m83 -72 c78 -108 318 -414 479 -611 94 -115 171 -216 171 -224 0 -16 -28 -51 -41 -51 -5 0 -67 78 -138 173 -125 164 -173 224 -280 347 -54 62 -203 254 -244 315 -29 43 -34 74 -15 93 18 18 29 11 68 -42z m-280 -212 c218 -126 540 -327 540 -336 0 -5 -5 -8 -10 -8 -30 0 -626 282 -676 320 -57 43 -81 78 -71 104 12 31 55 15 217 -80z m2204 -240 c81 -21 130 -47 187 -101 90 -84 53 -82 -119 5 l-113 57 -117 3 c-112 3 -120 2 -192 -28 -41 -18 -94 -47 -118 -65 -42 -33 -72 -37 -72 -10 0 18 41 45 116 78 202 89 277 99 428 61z m-1 -75 c29 -11 66 -31 82 -45 l30 -25 -24 -19 c-33 -28 -90 -26 -132 5 -33 24 -68 42 -154 81 l-40 18 30 7 c45 12 150 1 208 -22z m-513 2 c0 -4 -18 -21 -40 -36 -30 -21 -51 -27 -86 -27 -55 1 -63 7 -42 28 32 32 168 61 168 35z m349 -51 c49 -21 52 -25 35 -37 -29 -21 -67 -15 -140 23 -38 20 -71 38 -74 41 -14 15 132 -7 179 -27z m-184 -8 c71 -22 105 -42 105 -60 0 -10 -8 -12 -22 -9 -13 3 -39 8 -58 11 l-35 5 33 -11 c41 -14 41 -34 -2 -55 -32 -15 -44 -15 -168 1 -180 22 -231 21 -303 -9 -51 -21 -65 -23 -98 -14 -22 6 -37 15 -34 22 9 29 87 74 148 87 77 17 104 17 194 2 39 -6 106 -13 150 -16 71 -4 75 -3 35 6 -56 13 -57 14 -35 38 22 24 16 24 90 2z m-928 -77 c31 -14 54 -28 51 -31 -7 -6 -140 44 -153 58 -15 16 34 3 102 -27z m1564 12 c13 -9 34 -17 47 -17 29 0 64 -18 182 -94 52 -34 103 -66 112 -71 9 -6 57 -39 107 -75 50 -35 109 -72 133 -81 49 -19 55 -38 16 -57 -23 -11 -35 -9 -94 13 -95 36 -125 57 -243 168 -78 73 -124 107 -180 135 -70 34 -83 37 -161 37 -72 0 -92 -4 -135 -27 -105 -55 -146 -123 -125 -205 15 -63 33 -94 87 -155 51 -57 46 -70 -15 -39 -121 62 -168 231 -96 348 32 51 107 114 158 131 47 16 178 9 207 -11z m224 -8 c25 -23 35 -39 35 -61 0 -36 -18 -33 -40 8 -14 25 -25 30 -69 35 -65 9 -70 13 -34 33 42 23 69 19 108 -15z m-571 15 c28 -11 17 -22 -28 -28 -25 -4 -70 -23 -103 -45 -48 -31 -63 -36 -81 -28 -31 14 -28 23 16 51 55 37 161 64 196 50z m-1156 -86 c28 -11 52 -23 52 -28 0 -5 -17 -21 -37 -35 l-37 -25 -34 33 c-19 17 -40 45 -49 60 l-15 29 34 -7 c18 -4 57 -16 86 -27z m78 17 c24 -18 20 -18 -36 -1 -41 13 -42 15 -14 15 16 1 39 -6 50 -14z m1064 11 c0 -2 -14 -33 -31 -70 l-31 -66 -39 32 c-21 17 -39 34 -39 37 0 9 82 58 105 64 29 7 35 7 35 3z m-580 -17 c0 -18 -71 -41 -107 -34 -64 12 -36 28 67 38 19 2 36 5 38 5 1 1 2 -3 2 -9z m870 -9 c0 -13 -106 -65 -147 -73 -70 -13 -19 49 57 71 46 13 90 14 90 2z m-588 -16 c56 -7 94 -22 84 -32 -5 -5 -273 -23 -373 -25 -38 -1 -54 10 -34 22 27 17 231 52 258 45 7 -2 36 -6 65 -10z m673 5 c9 -14 -17 -42 -60 -65 -28 -15 -37 -16 -47 -6 -11 11 -6 20 24 48 38 34 71 43 83 23z m-1129 -33 c46 -3 144 -56 232 -126 42 -34 232 -274 232 -294 0 -11 -61 -16 -77 -7 -18 9 -107 165 -129 225 -6 18 -20 33 -35 37 -14 3 -49 24 -78 47 -76 57 -143 76 -248 69 -128 -8 -204 -49 -336 -180 -101 -100 -207 -174 -207 -143 0 23 87 134 183 233 100 104 151 134 262 156 60 12 77 12 115 0 25 -7 64 -15 86 -17z m1194 -11 c0 -22 -26 -81 -39 -89 -12 -8 -71 23 -71 36 0 11 81 68 97 68 7 0 13 -7 13 -15z m50 -49 c0 -25 -6 -35 -25 -44 -30 -14 -31 -7 -9 48 18 46 34 44 34 -4z m-860 16 c0 -14 -43 -50 -72 -61 -32 -12 -65 -3 -91 27 -18 20 -18 20 35 26 71 8 111 13 121 15 4 0 7 -3 7 -7z m97 -9 c5 -14 -125 -123 -147 -123 -24 0 -34 15 -22 36 11 19 143 105 156 101 6 -2 11 -8 13 -14z m162 -9 c39 -32 57 -92 41 -139 -14 -41 -55 -83 -89 -92 -14 -3 -33 -11 -41 -18 -8 -7 -41 -15 -72 -18 -52 -5 -58 -3 -72 18 -9 14 -16 26 -16 28 0 2 20 7 45 10 98 14 175 78 175 147 0 21 -4 50 -10 64 -12 33 0 33 39 0z m927 15 c70 -18 67 -28 -12 -53 -15 -5 -31 1 -53 20 -17 14 -31 30 -31 35 0 12 42 11 96 -2z m-986 -28 c22 -43 5 -109 -36 -136 -20 -13 -28 -12 -83 6 -34 12 -61 24 -61 29 0 9 95 91 125 108 29 16 43 15 55 -7z m467 -7 c52 -25 118 -93 133 -138 16 -48 6 -106 -19 -106 -11 0 -28 23 -52 71 -37 78 -69 111 -125 129 -36 12 -133 9 -183 -6 -21 -6 -22 -5 -12 14 32 59 168 78 258 36z m-1087 -3 c0 -12 -129 -115 -136 -108 -3 2 6 30 20 61 l25 56 45 0 c26 0 46 -4 46 -9z m1377 -17 c3 -9 -4 -26 -18 -40 -50 -54 -122 -72 -134 -33 -8 24 -13 19 55 58 61 34 88 39 97 15z m-1507 1 c0 -17 -72 -154 -90 -170 -30 -28 -36 -11 -16 53 35 111 42 122 75 122 17 0 31 -2 31 -5z m220 -9 c0 -18 -222 -211 -270 -236 -30 -15 -114 -41 -188 -57 -12 -3 -56 -2 -98 2 -64 6 -74 9 -63 20 30 30 71 44 97 34 19 -7 44 -3 106 17 103 33 120 42 186 102 86 77 170 132 202 132 17 0 28 -5 28 -14z m1665 2 c14 -6 25 -14 25 -18 0 -21 -109 -27 -143 -8 -22 11 -22 12 8 24 38 16 77 17 110 2z m-2000 -60 c-16 -74 -75 -154 -118 -160 -30 -4 -77 3 -77 12 0 31 159 180 192 180 6 0 6 -14 3 -32z m428 14 c16 -17 14 -20 -31 -54 -26 -20 -87 -71 -137 -113 -111 -95 -151 -114 -232 -115 -35 0 -63 3 -63 8 0 4 30 22 68 39 38 18 103 63 152 105 173 150 208 169 243 130z m1262 -22 c31 -32 28 -42 -22 -72 -24 -14 -33 -15 -53 -5 -12 7 -28 20 -34 30 -9 16 -5 23 24 48 19 16 39 29 45 29 6 0 24 -13 40 -30z m-425 1 c57 -5 66 -9 80 -34 13 -24 13 -29 0 -38 -32 -22 -222 18 -258 55 -27 27 -4 39 57 31 31 -4 85 -10 121 -14z m815 -16 c0 -16 -8 -21 -36 -23 -45 -4 -89 13 -89 33 0 13 11 15 63 13 54 -3 62 -5 62 -23z m-1561 -37 c25 -35 21 -51 -11 -45 -48 10 -100 -14 -184 -82 -44 -36 -90 -71 -101 -78 -21 -11 -48 -8 -48 7 0 9 213 189 245 208 34 19 82 15 99 -10z m195 -4 c7 -7 -12 -22 -33 -26 -11 -2 -25 7 -34 21 l-16 24 39 -7 c22 -4 42 -10 44 -12z m851 -19 c18 -19 32 -36 29 -38 -2 -2 -19 -9 -38 -16 -40 -13 -51 -4 -51 45 0 55 14 57 60 9z m200 11 c0 -33 -78 -85 -177 -117 -132 -43 -244 -50 -325 -19 -76 28 -183 130 -136 130 6 0 48 -21 92 -47 l81 -48 110 0 c125 0 185 16 263 69 67 47 92 55 92 32z m-762 -21 c16 -34 15 -45 -5 -67 -21 -24 -45 -23 -68 2 -18 20 -18 21 15 55 19 19 37 35 40 35 4 0 12 -11 18 -25z m866 -22 c15 -8 24 -18 20 -23 -13 -12 -175 -52 -183 -45 -3 4 16 27 42 51 50 48 57 49 121 17z m-504 -23 c0 -27 -49 -27 -81 0 l-24 19 53 1 c45 0 52 -2 52 -20z m-802 -16 c2 -14 -7 -25 -33 -37 -23 -11 -40 -28 -46 -47 -19 -54 -89 -47 -89 9 0 36 27 59 92 82 61 21 72 20 76 -7z m505 -18 c18 -14 18 -16 1 -41 -18 -28 -41 -30 -58 -3 -8 13 -6 22 8 37 22 24 25 25 49 7z m-132 -28 c59 -45 63 -63 13 -55 -42 7 -79 30 -102 65 -14 21 -13 22 16 22 19 0 46 -12 73 -32z m-567 -30 l7 -38 -53 0 -53 1 45 39 c24 22 45 38 46 37 1 -1 4 -19 8 -39z m450 13 c27 -28 27 -29 7 -36 -31 -10 -81 27 -81 59 0 18 50 2 74 -23z m-210 -3 c26 -36 20 -48 -23 -48 -52 0 -71 8 -71 31 0 40 69 52 94 17z m524 0 c19 -19 14 -28 -18 -28 -16 0 -30 4 -30 8 0 9 21 32 30 32 3 0 11 -5 18 -12z" id="svg_2" fill="#ffffff" fill-opacity="1" stroke="#ffffff" stroke-opacity="1" stroke-width="14"/>
</g></g></svg>