<svg xmlns="http://www.w3.org/2000/svg" version="1.0" width="256.000000" height="256.000000" preserveAspectRatio="xMidYMid meet"><rect id="backgroundrect" width="100%" height="100%" x="0" y="0" fill="none" stroke="none"/>


<g class="currentLayer" style=""><title>Layer 1</title><g transform="translate(0,256) scale(0.10000000149011612,-0.10000000149011612) " fill="#ffffff" stroke="none" id="svg_1" class="selected" fill-opacity="1">
<path d="M1268 2433 c-29 -7 -33 -48 -9 -82 32 -44 27 -92 -15 -156 -20 -30 -40 -72 -44 -93 -15 -83 36 -186 90 -180 34 4 38 40 10 90 -26 47 -22 85 16 135 58 76 69 150 32 223 -25 47 -53 69 -80 63z" id="svg_2" fill="#ffffff" fill-opacity="1"/>
<path d="M782 2168 c-17 -17 -15 -39 8 -73 27 -41 26 -100 -4 -139 -12 -17 -30 -45 -40 -63 -53 -103 37 -298 98 -212 13 19 12 26 -10 68 -31 57 -27 86 24 159 34 50 37 61 37 121 0 54 -5 72 -25 101 -36 52 -62 64 -88 38z" id="svg_3" fill="#ffffff" fill-opacity="1"/>
<path d="M1722 2168 c-17 -17 -15 -39 8 -73 30 -45 26 -94 -12 -146 -62 -86 -67 -184 -12 -256 26 -34 51 -42 72 -21 17 17 15 43 -8 80 -29 48 -25 77 20 147 63 97 64 179 3 251 -26 32 -51 38 -71 18z" id="svg_4" fill="#ffffff" fill-opacity="1"/>
<path d="M1200 1814 c-71 -31 -117 -92 -129 -172 l-6 -44 -85 -24 c-384 -109 -688 -425 -776 -805 -15 -66 -22 -79 -48 -95 -105 -60 -164 -142 -152 -208 35 -187 603 -338 1276 -338 673 0 1241 151 1276 338 12 66 -47 148 -152 208 -26 16 -33 29 -48 95 -88 380 -392 696 -776 805 l-85 24 -6 44 c-8 55 -28 94 -66 130 -58 56 -151 73 -223 42z m152 -95 c26 -19 58 -72 58 -96 0 -4 -58 -8 -130 -8 -71 0 -130 4 -130 8 0 23 31 76 56 95 39 29 106 29 146 1z m102 -204 c427 -75 758 -407 835 -839 11 -59 15 -136 7 -136 -2 0 -48 -9 -102 -20 -297 -62 -583 -90 -914 -90 -331 0 -617 28 -914 90 -54 11 -100 20 -102 20 -9 0 -3 82 10 152 81 421 408 747 826 823 102 18 249 18 354 0z m-1131 -1073 c352 -73 584 -96 957 -96 373 0 605 23 957 96 l152 31 3 55 3 56 38 -36 c64 -61 47 -98 -68 -156 -276 -136 -849 -208 -1363 -171 -341 24 -636 87 -807 171 -115 58 -132 95 -67 156 l37 36 3 -56 3 -55 152 -31z" id="svg_5" fill="#ffffff" fill-opacity="1"/>
<path d="M1171 1439 c-90 -10 -131 -28 -131 -58 0 -37 25 -45 100 -32 38 6 88 11 112 11 49 0 68 13 68 47 0 22 -27 44 -52 42 -7 -1 -51 -6 -97 -10z" id="svg_6" fill="#ffffff" fill-opacity="1"/>
<path d="M780 1297 c-185 -129 -313 -311 -375 -530 -27 -98 -23 -127 19 -127 31 0 38 11 65 105 56 200 180 378 336 481 59 40 73 74 36 94 -27 14 -30 13 -81 -23z" id="svg_7" fill="#ffffff" fill-opacity="1"/>
</g></g></svg>